# xmcd
#
# Track frame offsets:
#	150
#	14371
#	30150
#	41564
#	54540
#	69410
#	84690
#	99910
#	111635
#	129528
#
# Disc length: 1927 seconds
#
# Revision: 1
# Processed by: cddbd v1.5.2PL0 Copyright (c) Steve Scherf et al.
# Submitted via: audiograbber 1.83.01
#
DISCID=7d07850a
DTITLE=Various Artist - New Country Vol. 34 04-05/2007
DYEAR=2007
DGENRE=Country
TTITLE0=Miko Marks - Don't come cryin' to me
TTITLE1=Georges Barnes - Make her mine
TTITLE2=Johnny Lee and Kelly Kenning - She beat the cheat out of me
TTITLE3=Floyd Flowers - Small living for a large family
TTITLE4=Vivian Ashton - That's what love looks like
TTITLE5=Bubba Brown - The son I used to be
TTITLE6=Van Preston - Tougher than that
TTITLE7=Billy McKnight - You're the ticket
TTITLE8=Chris Bullinger - We'll be dancing tonight
TTITLE9=Cliff Beach - Whatever happened to the good hearted women
EXTD=
EXTT0=
EXTT1=
EXTT2=
EXTT3=
EXTT4=
EXTT5=
EXTT6=
EXTT7=
EXTT8=
EXTT9=
PLAYORDER=
